<?xml version="1.0" encoding="utf-8"?>
<!-- Generator: Adobe Illustrator 16.0.4, SVG Export Plug-In . SVG Version: 6.00 Build 0)  -->
<!DOCTYPE svg PUBLIC "-//W3C//DTD SVG 1.1//EN" "http://www.w3.org/Graphics/SVG/1.1/DTD/svg11.dtd">
<svg version="1.1" id="Layer_1" xmlns="http://www.w3.org/2000/svg" xmlns:xlink="http://www.w3.org/1999/xlink" x="0px" y="0px"
	 width="227.907px" height="63.565px" viewBox="0 0 227.907 63.565" enable-background="new 0 0 227.907 63.565"
	 xml:space="preserve">
<g>
	<path fill="#FFFFFF" d="M18.941,35.245c-2.753,0-4.726-0.919-5.745-1.768l-1.19,1.662H10.85l-0.238-8.626h1.122
		c1.394,3.748,3.366,7.283,7.581,7.283c3.026,0,4.182-1.697,4.182-4.243c0-1.909-1.122-3.606-3.162-4.455
		c-1.938-0.813-2.958-1.202-4.861-2.086c-2.618-1.202-4.182-3.146-4.182-6.293c0-3.748,3.094-6.541,6.969-6.541
		c1.768,0,3.875,0.813,5.065,1.768l1.156-1.662h1.156l0.17,8.379h-1.088c-1.36-3.995-2.754-7.036-7.003-7.036
		c-0.986,0-3.366,0.672-3.366,3.394c0,2.05,0.986,3.217,2.855,4.278c1.666,0.955,3.094,1.273,4.624,2.051
		c2.924,1.378,4.964,2.793,4.964,6.541C26.795,32.204,23.327,35.245,18.941,35.245z"/>
	<path fill="#FFFFFF" d="M40.633,35.315c-6.697,0-11.253-4.808-11.253-12.303c0-7.283,5.133-12.834,11.967-12.834
		c1.87,0,4.113,0.919,5.133,1.909l1.02-1.803h1.394L49.03,19.3h-1.156c-1.224-3.995-3.196-7.743-7.582-7.743
		c-3.467,0-6.833,3.359-6.833,11.172c0,6.188,3.706,10.43,8.159,10.43c4.147,0,5.847-2.086,7.173-5.056l1.122,0.566
		C48.521,31.957,45.801,35.315,40.633,35.315z"/>
	<path fill="#FFFFFF" d="M67.254,34.785v-1.167c0.612-0.036,2.006-0.142,2.448-0.318c0.816-0.318,1.054-0.955,1.054-1.732v-8.626
		H59.027v8.45c0,0.778,0.272,1.379,1.054,1.732c0.408,0.177,1.835,0.459,2.448,0.495v1.167H51.99v-1.167
		c0.612-0.036,1.938-0.142,2.38-0.318c0.816-0.318,1.054-0.955,1.054-1.732v-17.43c0-0.778-0.238-1.379-1.054-1.732
		c-0.578-0.248-1.768-0.566-2.38-0.601v-1.167h10.539v1.167c-0.612,0.035-1.836,0.212-2.448,0.424
		c-0.85,0.283-1.054,0.955-1.054,1.732v7.495h11.729v-7.318c0-0.778-0.272-1.379-1.054-1.732c-0.578-0.248-1.836-0.566-2.448-0.601
		v-1.167h10.539v1.167c-0.612,0.035-1.768,0.212-2.379,0.424c-0.85,0.283-1.054,0.955-1.054,1.732v17.43
		c0,0.778,0.272,1.343,1.054,1.732c0.408,0.212,1.768,0.459,2.379,0.495v1.167H67.254z"/>
	<path fill="#FFFFFF" d="M102.375,12.653c-0.918,0.601-1.122,2.121-1.122,4.737v17.642h-1.428L84.765,15.305v12.374
		c0,2.935,0.408,4.208,1.156,4.844c0.578,0.495,2.89,1.061,3.502,1.096v1.167H78.884v-1.167c0.612-0.036,2.788-0.637,3.162-0.919
		c0.816-0.601,1.122-1.874,1.122-4.844V16.118c0-1.025-0.408-2.227-1.088-2.793c-0.816-0.671-2.72-1.485-3.638-1.52v-1.167h7.173
		l14.041,18.384V17.603c0-2.829-0.408-4.278-1.156-4.773c-0.646-0.424-2.686-0.99-3.467-1.025v-1.167h10.471v1.167
		C104.891,11.84,102.919,12.3,102.375,12.653z"/>
	<path fill="#FFFFFF" d="M125.632,34.785h-20.126v-1.167c0.612-0.036,2.244-0.212,2.686-0.389c0.816-0.318,1.054-0.955,1.054-1.732
		V14.138c0-0.778-0.204-1.379-1.054-1.732c-0.646-0.283-2.074-0.566-2.686-0.601v-1.167h18.733v5.833h-1.258
		c-0.374-1.556-2.176-4.172-3.638-4.384c-0.816-0.106-1.734-0.141-2.822-0.141h-3.672v9.651h2.721c1.903,0,2.447-0.671,2.855-1.096
		c0.51-0.53,0.952-2.157,1.054-3.076h1.258v9.864h-1.258c-0.068-1.025-0.646-2.793-1.054-3.252c-0.442-0.495-1.02-1.096-2.855-1.096
		h-2.721v7.248c0,2.899,0.612,3.217,4.046,3.217c1.769,0,4.42,0.071,5.236-0.813c1.02-1.096,2.413-3.889,2.753-4.95h1.19
		L125.632,34.785z"/>
	<path fill="#FFFFFF" d="M127.3,34.785v-1.167c0.612-0.036,2.04-0.142,2.481-0.318c0.816-0.318,1.055-0.919,1.055-1.697v-17.5
		c0-0.778-0.204-1.343-1.055-1.697c-0.611-0.248-1.869-0.566-2.481-0.601v-1.167h10.675v1.167c-0.611,0.035-1.869,0.212-2.481,0.424
		c-0.85,0.283-1.054,0.919-1.054,1.697v17.5c0,0.778,0.271,1.344,1.054,1.697c0.408,0.177,1.87,0.459,2.481,0.495v1.167H127.3z"/>
	<path fill="#FFFFFF" d="M150.282,34.785H139.88v-1.167c0.68,0,2.073-0.142,2.516-0.318c0.815-0.318,1.054-0.955,1.054-1.732v-17.43
		c0-0.778-0.238-1.45-1.054-1.803c-0.816-0.354-1.768-0.495-2.38-0.53v-1.167h10.947c4.657,0,12.681,2.545,12.681,12.232
		C163.644,31.108,156.844,34.785,150.282,34.785z M150.011,11.981c-0.782,0-2.21,0.035-2.958,0.071v18.632
		c0.204,1.732,1.088,2.722,3.706,2.722c5.983,0,8.703-4.207,8.703-10.571C159.462,16.401,155.722,11.981,150.011,11.981z"/>
	<path fill="#FFFFFF" d="M185.199,34.785h-20.126v-1.167c0.611-0.036,2.243-0.212,2.686-0.389c0.815-0.318,1.054-0.955,1.054-1.732
		V14.138c0-0.778-0.204-1.379-1.054-1.732c-0.646-0.283-2.074-0.566-2.686-0.601v-1.167h18.731v5.833h-1.258
		c-0.374-1.556-2.176-4.172-3.638-4.384c-0.815-0.106-1.733-0.141-2.821-0.141h-3.672v9.651h2.72c1.904,0,2.448-0.671,2.855-1.096
		c0.511-0.53,0.952-2.157,1.055-3.076h1.258v9.864h-1.258c-0.068-1.025-0.646-2.793-1.055-3.252
		c-0.441-0.495-1.02-1.096-2.855-1.096h-2.72v7.248c0,2.899,0.612,3.217,4.046,3.217c1.768,0,4.419,0.071,5.235-0.813
		c1.02-1.096,2.414-3.889,2.754-4.95h1.189L185.199,34.785z"/>
	<path fill="#FFFFFF" d="M203.118,34.785c-0.511-2.581-1.021-4.596-1.938-7c-0.951-2.51-3.127-4.561-5.507-4.561h-1.734v8.273
		c0,0.778,0.238,1.45,1.054,1.768c0.442,0.177,1.973,0.318,2.584,0.354v1.167h-10.743v-1.167c0.612-0.036,2.006-0.177,2.448-0.354
		c0.815-0.318,1.054-0.99,1.054-1.768V14.032c0-0.778-0.204-1.485-1.054-1.768c-0.612-0.212-1.836-0.424-2.448-0.459v-1.167h11.831
		c3.434,0,7.105,1.591,7.105,5.515c0,3.854-2.822,5.091-6.493,6.152v0.354c2.04,0.495,4.589,1.662,5.677,4.49
		c0.544,1.415,1.225,3.677,1.395,4.172c0.544,1.732,1.496,1.874,2.142,2.015c0.68,0.142,1.462,0.248,2.073,0.283v1.167H203.118z
		 M196.896,11.981h-2.958v9.864h2.176c3.026,0,5.474-2.05,5.474-5.338C201.588,13.29,199.48,11.981,196.896,11.981z"/>
</g>
<g>
	<path fill="#FFFFFF" d="M15.798,54.895h-4.885v-0.481c0.252-0.015,0.856-0.102,1.039-0.175c0.337-0.131,0.436-0.379,0.436-0.7
		v-7.163c0-0.321-0.099-0.583-0.436-0.729c-0.294-0.131-0.729-0.219-0.982-0.233v-0.481h4.801c1.039,0,2.752,0.438,2.752,1.999
		c0,1.648-1.095,2.145-2.429,2.538V49.6c0.997,0.117,2.934,0.729,2.934,2.655C19.026,54.122,17.131,54.895,15.798,54.895z
		 M15.026,45.472c-0.239,0-0.814,0.015-1.151,0.029v3.852h0.871c1.544,0,2.092-0.89,2.092-2.115
		C16.837,45.792,15.896,45.472,15.026,45.472z M15.068,49.892c-0.252,0-0.94,0.015-1.193,0.029v3.559
		c0.098,0.656,0.492,0.875,1.32,0.875c1.67,0,2.105-1.24,2.105-2.422C17.3,50.752,16.514,49.892,15.068,49.892z"/>
	<path fill="#FFFFFF" d="M32.651,45.749c-0.379,0.248-0.463,1.036-0.463,1.94v4.289c0,2.378-2.19,3.151-3.65,3.151
		c-2.457,0-3.762-1.342-3.762-2.859v-5.893c0-0.321-0.112-0.554-0.435-0.729c-0.253-0.131-0.758-0.219-0.983-0.233v-0.481h4.366
		v0.481c-0.253,0.015-0.758,0.087-1.011,0.175c-0.351,0.117-0.436,0.394-0.436,0.715v5.528c0,1.05,0.351,2.524,2.541,2.524
		c2.232,0,2.695-1.576,2.695-2.582v-3.997c0-1.065-0.168-1.75-0.478-1.955c-0.351-0.233-1.109-0.394-1.432-0.409v-0.481h4.338v0.481
		C33.689,45.428,32.945,45.559,32.651,45.749z"/>
	<path fill="#FFFFFF" d="M37.907,54.895v-0.481c0.253-0.015,0.842-0.058,1.025-0.131c0.337-0.131,0.435-0.379,0.435-0.7v-7.221
		c0-0.321-0.084-0.554-0.435-0.7c-0.253-0.102-0.772-0.233-1.025-0.248v-0.481h4.408v0.481c-0.253,0.015-0.772,0.087-1.025,0.175
		c-0.351,0.117-0.435,0.379-0.435,0.7v7.221c0,0.321,0.112,0.554,0.435,0.7c0.168,0.073,0.772,0.189,1.025,0.204v0.481H37.907z"/>
	<path fill="#FFFFFF" d="M54.818,54.895h-8.016v-0.481c0.253-0.015,0.829-0.073,1.011-0.146c0.337-0.131,0.436-0.408,0.436-0.729
		v-7.133c0-0.321-0.084-0.569-0.436-0.729c-0.252-0.117-0.758-0.248-1.011-0.263v-0.481h4.394v0.481
		c-0.252,0.015-0.772,0.102-1.025,0.19c-0.351,0.117-0.435,0.408-0.435,0.729v6.681c0,1.24,0.155,1.342,1.67,1.342
		c0.688,0,1.643-0.073,1.923-0.379c0.365-0.409,1.081-1.561,1.221-2.057h0.478L54.818,54.895z"/>
	<path fill="#FFFFFF" d="M63.107,54.895h-4.295v-0.481c0.281,0,0.856-0.058,1.039-0.131c0.337-0.131,0.436-0.394,0.436-0.715v-7.191
		c0-0.321-0.099-0.598-0.436-0.744c-0.337-0.146-0.729-0.204-0.982-0.219v-0.481h4.521c1.923,0,5.236,1.05,5.236,5.047
		C68.625,53.378,65.817,54.895,63.107,54.895z M62.995,45.486c-0.323,0-0.912,0.014-1.221,0.029v7.688
		c0.084,0.715,0.449,1.124,1.53,1.124c2.471,0,3.594-1.736,3.594-4.362C66.898,47.31,65.354,45.486,62.995,45.486z"/>
	<path fill="#FFFFFF" d="M72.997,54.895v-0.481c0.253-0.015,0.842-0.058,1.025-0.131c0.337-0.131,0.435-0.379,0.435-0.7v-7.221
		c0-0.321-0.084-0.554-0.435-0.7c-0.253-0.102-0.772-0.233-1.025-0.248v-0.481h4.408v0.481c-0.253,0.015-0.772,0.087-1.025,0.175
		c-0.351,0.117-0.435,0.379-0.435,0.7v7.221c0,0.321,0.112,0.554,0.435,0.7c0.168,0.073,0.772,0.189,1.025,0.204v0.481H72.997z"/>
	<path fill="#FFFFFF" d="M91.213,45.763c-0.379,0.248-0.463,0.875-0.463,1.955v7.279h-0.59l-6.219-8.14v5.105
		c0,1.211,0.168,1.736,0.478,1.999c0.238,0.204,1.193,0.438,1.446,0.452v0.481h-4.352v-0.481c0.253-0.015,1.151-0.263,1.306-0.379
		c0.337-0.248,0.463-0.773,0.463-1.999v-4.843c0-0.423-0.168-0.919-0.449-1.152c-0.337-0.277-1.123-0.613-1.502-0.627v-0.481h2.962
		l5.797,7.585v-4.711c0-1.167-0.168-1.765-0.477-1.969c-0.267-0.175-1.109-0.409-1.432-0.423v-0.481h4.324v0.481
		C92.252,45.428,91.438,45.618,91.213,45.763z"/>
	<path fill="#FFFFFF" d="M105.215,51.102c-0.337,0.161-0.421,0.438-0.421,0.759v3.312l-0.323,0.058l-0.729-0.846
		c-0.814,0.321-2.092,0.729-3.271,0.729c-2.05,0-4.31-1.736-4.31-4.974c0-3.02,2.274-5.397,5.292-5.397
		c0.8,0,1.811,0.379,2.246,0.788l0.449-0.744h0.547l0.07,3.646h-0.463c-0.492-1.59-1.446-3.107-3.397-3.107
		c-1.614,0-3.032,1.619-3.032,4.712c0,2.596,1.404,4.463,3.145,4.463c1.53,0,2.316-0.729,2.4-1.692v-0.817
		c0-0.379-0.098-0.715-0.463-0.861c-0.337-0.131-1.137-0.204-1.39-0.219v-0.496h4.647v0.496
		C105.959,50.957,105.481,50.986,105.215,51.102z"/>
	<path fill="#FFFFFF" d="M119.888,55.114c-2.766,0-4.646-1.984-4.646-5.076c0-3.005,2.12-5.295,4.941-5.295
		c0.772,0,1.699,0.379,2.12,0.788l0.421-0.744h0.576l0.056,3.72h-0.478c-0.505-1.648-1.319-3.195-3.13-3.195
		c-1.433,0-2.822,1.386-2.822,4.61c0,2.553,1.53,4.303,3.369,4.303c1.713,0,2.415-0.861,2.962-2.086l0.464,0.233
		C123.145,53.728,122.021,55.114,119.888,55.114z"/>
	<path fill="#FFFFFF" d="M136.825,53.728c-0.913,0.875-2.05,1.4-3.496,1.4c-1.277,0-2.442-0.481-3.354-1.371
		c-0.927-0.904-1.502-2.145-1.502-3.734c0-1.59,0.449-2.859,1.361-3.808c0.954-1.006,2.19-1.517,3.552-1.517
		c1.319,0,2.513,0.453,3.565,1.517c0.828,0.861,1.334,2.203,1.334,3.632C138.285,51.365,137.85,52.692,136.825,53.728z
		 M133.386,45.311c-1.993,0-3.215,1.707-3.215,4.639c0,2.524,1.024,4.566,3.215,4.566c2.176,0,3.2-1.999,3.2-4.624
		C136.586,47.587,135.716,45.311,133.386,45.311z"/>
	<path fill="#FFFFFF" d="M151.178,54.895v-0.481c0.253-0.015,1.025-0.073,1.222-0.175c0.323-0.175,0.463-0.409,0.463-0.744v-7.206
		l-3.579,8.446h-0.337c-0.169-0.569-0.491-1.4-0.744-2.027l-2.653-6.623v5.893c0,1.211,0.169,1.736,0.478,1.999
		c0.238,0.204,1.123,0.423,1.375,0.438v0.481h-4.281v-0.481c0.238-0.029,0.969-0.102,1.306-0.35s0.463-0.817,0.463-2.013v-5.047
		c0-0.598-0.154-0.963-0.435-1.196c-0.337-0.277-0.885-0.379-1.264-0.394v-0.481h3.369l3.061,7.411l2.611-6.17
		c0.225-0.54,0.309-1.08,0.322-1.24h3.243v0.481c-0.253,0.015-0.786,0.087-1.039,0.175c-0.351,0.117-0.436,0.394-0.436,0.715v7.191
		c0,0.321,0.112,0.554,0.436,0.715c0.169,0.087,0.8,0.189,1.053,0.204v0.481H151.178z"/>
	<path fill="#FFFFFF" d="M165.108,50.402h-1.095v3.137c0,0.321,0.098,0.598,0.435,0.729c0.183,0.073,0.758,0.131,1.109,0.146v0.481
		h-4.479v-0.481c0.253-0.015,0.828-0.073,1.011-0.146c0.337-0.131,0.436-0.408,0.436-0.729v-7.192c0-0.321-0.084-0.627-0.436-0.744
		c-0.351-0.117-0.813-0.175-1.066-0.19v-0.481h4.702c1.657,0,3.005,0.89,3.005,2.393C168.73,49.439,166.919,50.402,165.108,50.402z
		 M164.968,45.486h-0.954v4.333h0.688c2.021,0,2.288-1.444,2.288-2.13C166.989,46.595,166.568,45.486,164.968,45.486z"/>
	<path fill="#FFFFFF" d="M177.776,54.895v-0.481c0.491-0.029,1.418-0.16,1.418-0.408c0-0.103-0.014-0.219-0.056-0.336l-0.843-2.231
		h-3.439c-0.21,0.525-0.407,1.094-0.533,1.531c-0.099,0.321-0.154,0.613-0.154,0.817c0,0.452,1.095,0.598,1.586,0.627v0.481h-4.001
		v-0.481c0.267-0.015,0.73-0.117,0.983-0.263c0.337-0.204,0.589-0.481,0.8-0.992c0.997-2.509,2.162-5.602,3.229-8.388h0.604
		c1.433,3.763,2.752,7.323,3.271,8.679c0.112,0.292,0.295,0.511,0.632,0.715c0.252,0.146,0.659,0.233,0.926,0.248v0.481H177.776z
		 M176.569,46.916l-1.474,3.895h2.962L176.569,46.916z"/>
	<path fill="#FFFFFF" d="M195.85,45.763c-0.379,0.248-0.463,0.875-0.463,1.955v7.279h-0.59l-6.219-8.14v5.105
		c0,1.211,0.169,1.736,0.478,1.999c0.238,0.204,1.193,0.438,1.445,0.452v0.481h-4.352v-0.481c0.253-0.015,1.151-0.263,1.306-0.379
		c0.337-0.248,0.463-0.773,0.463-1.999v-4.843c0-0.423-0.168-0.919-0.449-1.152c-0.337-0.277-1.123-0.613-1.502-0.627v-0.481h2.962
		l5.798,7.585v-4.711c0-1.167-0.168-1.765-0.478-1.969c-0.267-0.175-1.108-0.409-1.432-0.423v-0.481h4.324v0.481
		C196.889,45.428,196.074,45.618,195.85,45.763z"/>
	<path fill="#FFFFFF" d="M209.57,45.69c-0.365,0.219-0.449,0.277-0.814,0.744c-0.758,0.992-1.319,2.057-2.134,3.589
		c-0.28,0.525-0.491,1.152-0.491,1.634v1.794c0,0.336,0.112,0.583,0.436,0.729c0.168,0.073,0.898,0.219,1.151,0.233v0.481h-4.661
		v-0.481c0.253-0.015,0.969-0.087,1.151-0.16c0.337-0.131,0.436-0.409,0.436-0.729v-2.393c0-0.292-0.155-0.656-0.365-1.094
		c-0.646-1.313-1.193-2.334-1.783-3.399c-0.295-0.525-0.59-0.788-0.927-0.992c-0.252-0.146-0.632-0.219-0.898-0.233v-0.481h4.521
		v0.481c-0.491,0.029-1.418,0.029-1.418,0.35c0,0.204,0.898,1.926,2.148,4.23c1.305-2.13,2.246-3.807,2.246-4.041
		c0-0.438-0.786-0.496-1.433-0.54v-0.481h3.65v0.481C210.216,45.428,209.725,45.588,209.57,45.69z"/>
</g>
<rect x="10.295" y="39.518" fill="#FFFFFF" width="200.057" height="1.234"/>
</svg>
